cl__1 = 1e+22;
Point(1) = {3.33066907387547e-16, 3, -2.449293598294706e-16, cl__1};
Point(2) = {3, 0, -2.449293598294706e-16, cl__1};
p1 = newp;
Point(p1 + 1) = {0, 0, -2.449293598294706e-16};
Circle(1) = {2, p1 + 1, 1};
p2 = newp;
Point(p2 + 1) = {3.317000386132849e-16, 2.987688340595138, 0.1564344650402309};
Point(p2 + 2) = {3.276330891360983e-16, 2.951056516295154, 0.3090169943749474};
Point(p2 + 3) = {3.20966200749547e-16, 2.891006524188368, 0.4539904997395467};
Point(p2 + 4) = {3.11863534371842e-16, 2.809016994374947, 0.5877852522924731};
Point(p2 + 5) = {3.005492278592201e-16, 2.707106781186547, 0.7071067811865475};
Point(p2 + 6) = {2.873018769880524e-16, 2.587785252292473, 0.8090169943749473};
Point(p2 + 7) = {2.724476755022239e-16, 2.453990499739547, 0.8910065241883678};
Point(p2 + 8) = {2.563523831405842e-16, 2.309016994374947, 0.9510565162951535};
Point(p2 + 9) = {2.394123194182896e-16, 2.156434465040231, 0.9876883405951378};
Point(p2 + 10) = {2.220446049250313e-16, 2, 1};
Point(p2 + 11) = {2.04676890431773e-16, 1.843565534959769, 0.9876883405951377};
Point(p2 + 12) = {1.877368267094784e-16, 1.690983005625053, 0.9510565162951536};
Point(p2 + 13) = {1.716415343478387e-16, 1.546009500260453, 0.8910065241883679};
Point(p2 + 14) = {1.567873328620103e-16, 1.412214747707527, 0.8090169943749475};
Point(p2 + 15) = {1.435399819908426e-16, 1.292893218813453, 0.7071067811865476};
Point(p2 + 16) = {1.322256754782206e-16, 1.190983005625053, 0.5877852522924732};
Point(p2 + 17) = {1.231230091005156e-16, 1.108993475811632, 0.4539904997395469};
Point(p2 + 18) = {1.164561207139643e-16, 1.048943483704846, 0.3090169943749475};
Point(p2 + 19) = {1.123891712367777e-16, 1.012311659404862, 0.156434465040231};
Point(p2 + 20) = {1.110223024625157e-16, 1, 1.224646799147353e-16};
Point(p2 + 21) = {1.123891712367777e-16, 1.012311659404862, -0.1564344650402308};
Point(p2 + 22) = {1.164561207139643e-16, 1.048943483704847, -0.3090169943749477};
Point(p2 + 23) = {1.231230091005155e-16, 1.108993475811632, -0.4539904997395463};
Point(p2 + 24) = {1.322256754782206e-16, 1.190983005625053, -0.587785252292473};
Point(p2 + 25) = {1.435399819908425e-16, 1.292893218813452, -0.7071067811865475};
Point(p2 + 26) = {1.567873328620103e-16, 1.412214747707527, -0.8090169943749473};
Point(p2 + 27) = {1.716415343478387e-16, 1.546009500260453, -0.8910065241883678};
Point(p2 + 28) = {1.877368267094784e-16, 1.690983005625053, -0.9510565162951535};
Point(p2 + 29) = {2.046768904317729e-16, 1.843565534959769, -0.9876883405951377};
Point(p2 + 30) = {2.220446049250313e-16, 2, -1};
Point(p2 + 31) = {2.394123194182896e-16, 2.156434465040231, -0.9876883405951378};
Point(p2 + 32) = {2.563523831405842e-16, 2.309016994374947, -0.9510565162951536};
Point(p2 + 33) = {2.724476755022239e-16, 2.453990499739547, -0.891006524188368};
Point(p2 + 34) = {2.873018769880523e-16, 2.587785252292473, -0.8090169943749476};
Point(p2 + 35) = {3.005492278592201e-16, 2.707106781186547, -0.7071067811865477};
Point(p2 + 36) = {3.11863534371842e-16, 2.809016994374947, -0.5877852522924732};
Point(p2 + 37) = {3.20966200749547e-16, 2.891006524188368, -0.453990499739547};
Point(p2 + 38) = {3.276330891360983e-16, 2.951056516295154, -0.3090169943749476};
Point(p2 + 39) = {3.317000386132849e-16, 2.987688340595138, -0.1564344650402311};
Spline(2) = {1, p2 + 1, p2 + 2, p2 + 3, p2 + 4, p2 + 5, p2 + 6, p2 + 7, p2 + 8, p2 + 9, p2 + 10, p2 + 11, p2 + 12, p2 + 13, p2 + 14, p2 + 15, p2 + 16, p2 + 17, p2 + 18, p2 + 19, p2 + 20, p2 + 21, p2 + 22, p2 + 23, p2 + 24, p2 + 25, p2 + 26, p2 + 27, p2 + 28, p2 + 29, p2 + 30, p2 + 31, p2 + 32, p2 + 33, p2 + 34, p2 + 35, p2 + 36, p2 + 37, p2 + 38, p2 + 39, 1};
p3 = newp;
Point(p3 + 1) = {2.987688340595138, 0, 0.1564344650402309};
Point(p3 + 2) = {2.951056516295154, 0, 0.3090169943749474};
Point(p3 + 3) = {2.891006524188368, 0, 0.4539904997395467};
Point(p3 + 4) = {2.809016994374947, 0, 0.5877852522924731};
Point(p3 + 5) = {2.707106781186547, 0, 0.7071067811865475};
Point(p3 + 6) = {2.587785252292473, 0, 0.8090169943749473};
Point(p3 + 7) = {2.453990499739547, 0, 0.8910065241883678};
Point(p3 + 8) = {2.309016994374947, 0, 0.9510565162951535};
Point(p3 + 9) = {2.156434465040231, 0, 0.9876883405951378};
Point(p3 + 10) = {2, 0, 1};
Point(p3 + 11) = {1.843565534959769, 0, 0.9876883405951377};
Point(p3 + 12) = {1.690983005625053, 0, 0.9510565162951536};
Point(p3 + 13) = {1.546009500260453, 0, 0.8910065241883679};
Point(p3 + 14) = {1.412214747707527, 0, 0.8090169943749475};
Point(p3 + 15) = {1.292893218813453, 0, 0.7071067811865476};
Point(p3 + 16) = {1.190983005625053, 0, 0.5877852522924732};
Point(p3 + 17) = {1.108993475811632, 0, 0.4539904997395469};
Point(p3 + 18) = {1.048943483704846, 0, 0.3090169943749475};
Point(p3 + 19) = {1.012311659404862, 0, 0.156434465040231};
Point(p3 + 20) = {1, 0, 1.224646799147353e-16};
Point(p3 + 21) = {1.012311659404862, 0, -0.1564344650402308};
Point(p3 + 22) = {1.048943483704847, 0, -0.3090169943749477};
Point(p3 + 23) = {1.108993475811632, 0, -0.4539904997395463};
Point(p3 + 24) = {1.190983005625053, 0, -0.587785252292473};
Point(p3 + 25) = {1.292893218813452, 0, -0.7071067811865475};
Point(p3 + 26) = {1.412214747707527, 0, -0.8090169943749473};
Point(p3 + 27) = {1.546009500260453, 0, -0.8910065241883678};
Point(p3 + 28) = {1.690983005625053, 0, -0.9510565162951535};
Point(p3 + 29) = {1.843565534959769, 0, -0.9876883405951377};
Point(p3 + 30) = {2, 0, -1};
Point(p3 + 31) = {2.156434465040231, 0, -0.9876883405951378};
Point(p3 + 32) = {2.309016994374947, 0, -0.9510565162951536};
Point(p3 + 33) = {2.453990499739547, 0, -0.891006524188368};
Point(p3 + 34) = {2.587785252292473, 0, -0.8090169943749476};
Point(p3 + 35) = {2.707106781186547, 0, -0.7071067811865477};
Point(p3 + 36) = {2.809016994374947, 0, -0.5877852522924732};
Point(p3 + 37) = {2.891006524188368, 0, -0.453990499739547};
Point(p3 + 38) = {2.951056516295154, 0, -0.3090169943749476};
Point(p3 + 39) = {2.987688340595138, 0, -0.1564344650402311};
Spline(3) = {2, p3 + 1, p3 + 2, p3 + 3, p3 + 4, p3 + 5, p3 + 6, p3 + 7, p3 + 8, p3 + 9, p3 + 10, p3 + 11, p3 + 12, p3 + 13, p3 + 14, p3 + 15, p3 + 16, p3 + 17, p3 + 18, p3 + 19, p3 + 20, p3 + 21, p3 + 22, p3 + 23, p3 + 24, p3 + 25, p3 + 26, p3 + 27, p3 + 28, p3 + 29, p3 + 30, p3 + 31, p3 + 32, p3 + 33, p3 + 34, p3 + 35, p3 + 36, p3 + 37, p3 + 38, p3 + 39, 2};
Line Loop(1) = {1, 2, -1, 3};
Surface(1) = {1};
Line Loop(2) = {3};
Plane Surface(2) = {2};
Line Loop(3) = {2};
Plane Surface(3) = {3};
Surface Loop(1) = {1, 2, 3};
Volume(1) = {1};
Physical Surface("1") = {3};
Physical Surface("2") = {2};
Physical Surface("3") = {1};
Physical Volume("4") = {1};
